# xmcd
#
# Track frame offsets:
#	150
#	15709
#	31811
#	48516
#	64728
#	79749
#	94625
#	110390
#	127434
#	145386
#	162330
#	177450
#	194602
#	209811
#	224835
#	239446
#	254292
#	269996
#	288096
#	303910
#	317763
#	336800
#
# Disc length: 4714 seconds
#
# Revision: 1
# Processed by: cddbd v1.5.1PL0 Copyright (c) Steve Scherf et al.
# Submitted via: audiograbber 1.83.01
#
DISCID=61126816
DTITLE=Britney Spears. - various
DYEAR=1900
DGENRE=
TTITLE0=Mona Lisa.
TTITLE1=Chaotic.
TTITLE2=Over To You Now.
TTITLE3=Someday. (I Wil Understand)
TTITLE4=Do Somethin'
TTITLE5=Toxic. (Main Mix)
TTITLE6=Oops! ...I Did It Again.
TTITLE7=I'm Not A Girl, Not Yet A Woman.
TTITLE8=Sometimes.
TTITLE9=Everytime.
TTITLE10=Stronge.
TTITLE11=Don't Let Me Be The Last To Know.
TTITLE12=Lucky.
TTITLE13=I've Just Begin. (Having My Fun)
TTITLE14=(You Drive Me) Crazy.
TTITLE15=Overprotected.
TTITLE16=Baby One More Time.
TTITLE17=Born To Make You Happy.
TTITLE18=My Prerogative.
TTITLE19=I Love Rock'N'Roll.
TTITLE20=Do Somethin' (Dj Monks Rmx)
TTITLE21=Someday. (Hi Bias Rmx)
EXTD=
EXTT0=
EXTT1=
EXTT2=
EXTT3=
EXTT4=
EXTT5=
EXTT6=
EXTT7=
EXTT8=
EXTT9=
EXTT10=
EXTT11=
EXTT12=
EXTT13=
EXTT14=
EXTT15=
EXTT16=
EXTT17=
EXTT18=
EXTT19=
EXTT20=
EXTT21=
PLAYORDER=
